<?xml version="1.0" encoding="utf-8"?>
<!-- Generator: Adobe Illustrator 19.2.1, SVG Export Plug-In . SVG Version: 6.00 Build 0)  -->
<svg version="1.1" id="Github" xmlns="http://www.w3.org/2000/svg" xmlns:xlink="http://www.w3.org/1999/xlink" x="0px" y="0px"
	 width="128px" height="128px" viewBox="0 0 128 128" style="enable-background:new 0 0 128 128;" xml:space="preserve">
<style type="text/css">
	.st0{fill:#0074aa;}
</style>
<path class="st0" d="M0,0h128v128H0V0z M89.2,55.4C89.2,55.4,89.2,55.4,89.2,55.4c0-0.2,0-0.2-0.1-0.3c0,0,0-0.1,0-0.1
	c0-0.1,0-0.1-0.1-0.2c0,0,0-0.1,0-0.1c0,0,0-0.1-0.1-0.1c0,0,0-0.1-0.1-0.1c0,0-0.1-0.1-0.1-0.1c0,0,0-0.1-0.1-0.1
	c0,0-0.1-0.1-0.1-0.1c0,0-0.1-0.1-0.1-0.1c0,0-0.1-0.1-0.1-0.1c0,0-0.1-0.1-0.1-0.1c0,0,0,0,0,0L64.8,38.2c-0.7-0.5-1.7-0.5-2.4,0
	L38.8,53.9c0,0,0,0,0,0c0,0-0.1,0-0.1,0.1c0,0-0.1,0.1-0.1,0.1c0,0-0.1,0.1-0.1,0.1c0,0-0.1,0.1-0.1,0.1c0,0-0.1,0.1-0.1,0.1
	c0,0-0.1,0.1-0.1,0.1c0,0,0,0.1-0.1,0.1c0,0-0.1,0.1-0.1,0.1c0,0,0,0.1,0,0.1c0,0.1,0,0.1-0.1,0.2c0,0,0,0.1,0,0.1
	c0,0.1,0,0.1,0,0.2c0,0,0,0.1,0,0.1c0,0.1,0,0.2,0,0.3v15.7c0,0.1,0,0.2,0,0.3c0,0,0,0.1,0,0.1c0,0.1,0,0.1,0,0.2c0,0,0,0.1,0,0.1
	c0,0.1,0,0.1,0.1,0.2c0,0,0,0.1,0,0.1c0,0,0,0.1,0.1,0.1c0,0,0,0.1,0.1,0.1c0,0,0.1,0.1,0.1,0.1c0,0,0.1,0.1,0.1,0.1
	c0,0,0.1,0.1,0.1,0.1c0,0,0.1,0.1,0.1,0.1c0,0,0.1,0.1,0.1,0.1c0,0,0.1,0.1,0.1,0.1c0,0,0,0,0,0l23.5,15.7c0.4,0.2,0.8,0.4,1.2,0.4
	c0.4,0,0.9-0.1,1.2-0.4l23.5-15.7c0,0,0,0,0,0c0,0,0.1,0,0.1-0.1c0,0,0.1-0.1,0.1-0.1c0,0,0.1-0.1,0.1-0.1c0,0,0.1-0.1,0.1-0.1
	c0,0,0.1-0.1,0.1-0.1c0,0,0.1-0.1,0.1-0.1c0,0,0-0.1,0.1-0.1c0,0,0.1-0.1,0.1-0.1c0,0,0-0.1,0-0.1c0-0.1,0-0.1,0.1-0.2
	c0,0,0-0.1,0-0.1c0-0.1,0-0.1,0-0.2c0,0,0-0.1,0-0.1c0-0.1,0-0.2,0-0.3V55.7C89.2,55.6,89.2,55.5,89.2,55.4z M65.8,44.2l17.3,11.5
	l-7.7,5.2l-9.6-6.4V44.2z M61.3,44.2v10.3l-9.6,6.4L44,55.7L61.3,44.2z M42.3,59.9l5.5,3.7l-5.5,3.7V59.9z M61.3,82.9L44,71.4
	l7.7-5.2l9.6,6.4V82.9z M63.5,68.8l-7.8-5.2l7.8-5.2l7.8,5.2L63.5,68.8z M65.8,82.9V72.6l9.6-6.4l7.7,5.2L65.8,82.9z M84.8,67.2
	l-5.5-3.7l5.5-3.7V67.2z M63.5,22C40.6,22,22,40.6,22,63.5s18.6,41.5,41.5,41.5c22.9,0,41.5-18.6,41.5-41.5S86.5,22,63.5,22z
	 M63.5,98.3c-19.1,0-34.7-15.6-34.7-34.7s15.6-34.7,34.7-34.7c19.1,0,34.7,15.6,34.7,34.7S82.7,98.3,63.5,98.3z"/>
</svg>
